<svg width="20" height="13" viewBox="0 0 20 13" fill="none" xmlns="http://www.w3.org/2000/svg">
<path d="M11.06 5.0892L18.5535 0.440797C18.7539 0.32058 18.6737 0 18.4333 0H1.60286C1.36242 0 1.28228 0.32058 1.48264 0.440797L9.01626 5.0892C9.61735 5.48992 10.4188 5.48992 11.06 5.0892Z" fill="#6C6C6C"/>
<path d="M11.4607 5.77045C11.0199 6.05096 10.499 6.17118 10.0181 6.17118C9.53724 6.17118 9.0163 6.05096 8.5755 5.77045L0.520942 0.80147C0.280507 0.64118 0 0.80147 0 1.08198V11.5008C0 11.9817 0.400724 12.3824 0.881594 12.3824H19.1146C19.5954 12.3824 19.9962 11.9817 19.9962 11.5008V1.08198C20.0362 0.80147 19.7557 0.64118 19.5153 0.80147L11.4607 5.77045Z" fill="#6C6C6C"/>
</svg>
