<svg width="20" height="20" viewBox="0 0 20 20" fill="none" xmlns="http://www.w3.org/2000/svg">
<path d="M10.2199 11.6C13.4294 11.6 16.0312 9.00326 16.0312 5.8C16.0312 2.59675 13.4294 0 10.2199 0C7.01041 0 4.4086 2.59675 4.4086 5.8C4.4086 9.00326 7.01041 11.6 10.2199 11.6Z" fill="#6C6C6C"/>
<path d="M17.3137 10.4C16.6724 9.71995 15.5903 9.75995 14.909 10.44C13.7066 11.64 12.0635 12.4 10.2199 12.4C8.29613 12.4 6.5327 11.56 5.33036 10.24C4.68912 9.51995 3.56694 9.55995 2.88561 10.24C1.12218 11.96 0 14.4 0 17.08V19.2C0 19.64 0.360701 20 0.761481 20H19.2374C19.6783 20 19.9989 19.64 19.9989 19.24V17.12C20.039 14.48 18.9969 12.12 17.3137 10.4Z" fill="#6C6C6C"/>
</svg>
