<svg width="153" height="120" viewBox="0 0 153 120" fill="none" xmlns="http://www.w3.org/2000/svg">
<path d="M67.6688 0H46.2451C31.7996 0.0970089 24.5838 7.27567 24.5838 21.536V49.7933H7.22948C3.29995 49.7933 0.111572 52.953 0.111572 56.8472V70.2899H24.5838V98.464C24.5838 112.724 31.7996 119.903 46.2451 120H67.6688C82.1004 119.903 89.3302 112.724 89.3302 98.464V21.536C89.3162 7.27567 82.1004 0.0970089 67.6688 0ZM60.0335 99.5865H53.9364C47.9932 99.5865 45.0984 96.6901 45.2383 90.8973V29.172C45.0845 23.3791 47.9792 20.4827 53.9364 20.4827H60.0335C65.9767 20.4827 68.8854 23.3791 68.7316 29.172V90.9112C68.8854 96.6901 65.9907 99.5865 60.0335 99.5865Z" fill="#222323"/>
<path d="M128.402 49.7933V21.536C128.402 7.27567 121.186 0.0970089 106.755 0H101.664C105.804 3.93579 107.887 9.89491 107.887 17.8912V102.192C107.887 110.133 105.832 116.064 101.748 120H106.755C121.186 119.903 128.416 112.724 128.416 98.464V70.276H145.882C149.812 70.276 153 67.1163 153 63.2221V49.7794H128.402V49.7933Z" fill="#E6361F"/>
</svg>
