<svg width="35" height="35" viewBox="0 0 35 35" fill="none" xmlns="http://www.w3.org/2000/svg">
<path d="M12.04 19.53H14L13.02 15.4L12.04 19.53Z" fill="#1D1D1B"/>
<path d="M23.45 12.88H21.77V16.8H23.45C24.15 16.8 24.5 16.31 24.43 15.4V13.86C24.5 13.23 24.15 12.88 23.45 12.88Z" fill="#1D1D1B"/>
<path d="M17.5 0C7.84 0 0 7.84 0 17.5C0 27.16 7.84 35 17.5 35C27.16 35 35 27.16 35 17.5C35 7.84 27.16 0 17.5 0ZM15.19 24.5L14.56 21.84H11.48L10.78 24.5H8.12L11.76 10.57H14.21L17.92 24.5H15.19ZM26.81 16.66C26.81 18.34 25.97 19.18 24.29 19.18H21.7V24.5H19.32V10.5H24.29C25.97 10.5 26.81 11.34 26.81 13.02V16.66Z" fill="#1D1D1B"/>
</svg>
