<svg width="35" height="35" viewBox="0 0 35 35" fill="none" xmlns="http://www.w3.org/2000/svg">
<path d="M17.85 20.3C23.4556 20.3 28 15.7557 28 10.15C28 4.54431 23.4556 0 17.85 0C12.2443 0 7.69995 4.54431 7.69995 10.15C7.69995 15.7557 12.2443 20.3 17.85 20.3Z" fill="#1D1D1B"/>
<path d="M30.24 18.2C29.12 17.01 27.23 17.08 26.04 18.27C23.94 20.37 21.07 21.7 17.85 21.7C14.49 21.7 11.41 20.23 9.31 17.92C8.19 16.66 6.23 16.73 5.04 17.92C1.96 20.93 0 25.2 0 29.89V33.6C0 34.37 0.63 35 1.33 35H33.6C34.37 35 34.93 34.37 34.93 33.67V29.96C35 25.34 33.18 21.21 30.24 18.2Z" fill="#1D1D1B"/>
</svg>
