<svg width="35" height="35" viewBox="0 0 35 35" fill="none" xmlns="http://www.w3.org/2000/svg">
<path d="M31.57 13.09C30.73 12.25 29.4 12.25 28.56 13.16C27.23 14.49 25.55 15.33 23.59 15.61C23.38 17.36 22.75 18.9 21.7 20.23C22.12 20.02 22.61 19.88 23.1 19.88C23.94 19.88 24.71 20.23 25.27 20.79C26.53 22.12 27.51 23.59 28.21 25.27H33.95C34.51 25.27 34.93 24.85 34.93 24.29V21.63C35 18.27 33.67 15.26 31.57 13.09Z" fill="#1D1D1B"/>
<path d="M14.63 22.96C19.2305 22.96 22.96 19.2305 22.96 14.63C22.96 10.0295 19.2305 6.29999 14.63 6.29999C10.0295 6.29999 6.3 10.0295 6.3 14.63C6.3 19.2305 10.0295 22.96 14.63 22.96Z" fill="#1D1D1B"/>
<path d="M21.35 21.28C19.67 23.03 17.22 24.08 14.63 24.08C11.83 24.08 9.38 22.89 7.63 21C6.72 20.02 5.11 20.02 4.13 21C1.61 23.52 0 26.95 0 30.8V33.81C0 34.51 0.49 35 1.12 35H27.58C28.21 35 28.7 34.51 28.7 33.88V30.8C28.7 27.09 27.23 23.66 24.78 21.21C23.87 20.23 22.33 20.3 21.35 21.28Z" fill="#1D1D1B"/>
<path d="M23.66 14.56C27.23 14.07 29.96 10.99 29.96 7.35C29.96 3.29 26.67 0 22.68 0C19.25 0 16.31 2.38 15.54 5.67C20.09 6.09 23.59 9.94 23.66 14.56Z" fill="#1D1D1B"/>
</svg>
