<svg width="45" height="35" viewBox="0 0 45 35" fill="none" xmlns="http://www.w3.org/2000/svg">
<path d="M19.5227 0H13.3348C9.16203 0.0299658 7.07941 2.12008 7.07941 6.27783V14.5184H2.06015C0.921447 14.5184 0 15.4399 0 16.5786V20.4966H7.07192V28.7147C7.07192 32.8724 9.15454 34.97 13.3273 34.9925H19.5227C23.6954 34.9625 25.778 32.8724 25.778 28.7147V6.27783C25.7855 2.12008 23.6954 0.0299658 19.5227 0ZM17.3202 29.0443H15.5597C13.8442 29.0443 13.0051 28.1978 13.0501 26.5122V8.51027C13.0051 6.81721 13.8442 5.97817 15.5597 5.97817H17.3202C19.0357 5.97817 19.8748 6.8247 19.8298 8.51027V26.5122C19.8748 28.1978 19.0432 29.0443 17.3202 29.0443Z" fill="#222323"/>
<path d="M37.0826 14.5184V6.27783C37.0826 2.12008 35 0.0299658 30.8272 0H29.3589C30.5575 1.14619 31.1569 2.8842 31.1569 5.21404V29.8009C31.1569 32.1158 30.565 33.8463 29.3814 34.9925H30.8272C35 34.9625 37.0826 32.8724 37.0826 28.7147V20.4966H42.1318C43.2705 20.4966 44.192 19.5751 44.192 18.4364V14.5184H37.0826Z" fill="#222323"/>
</svg>
