<svg width="25" height="25" viewBox="0 0 25 25" fill="none" xmlns="http://www.w3.org/2000/svg">
<path d="M12.5 0C5.57292 0 0 5.57292 0 12.5C0 19.4271 5.57292 25 12.5 25C19.4271 25 25 19.4271 25 12.5C25 5.57292 19.4271 0 12.5 0ZM20.5729 13.8021H14.0625V20.3125C14.0625 21.1979 13.3854 21.875 12.5 21.875C11.6146 21.875 10.9375 21.1979 10.9375 20.3125V13.8021H4.42708C3.54167 13.8021 2.86458 13.125 2.86458 12.2396C2.86458 11.3542 3.54167 10.6771 4.42708 10.6771H10.9375V4.16667C10.9375 3.28125 11.6146 2.60417 12.5 2.60417C13.3854 2.60417 14.0625 3.28125 14.0625 4.16667V10.6771H20.5729C21.4583 10.6771 22.1354 11.3542 22.1354 12.2396C22.1354 13.125 21.4583 13.8021 20.5729 13.8021Z" fill="#E6361F"/>
</svg>
