<svg width="20" height="20" viewBox="0 0 20 20" fill="none" xmlns="http://www.w3.org/2000/svg">
<path d="M10.4016 0.503329L12.6425 5.24938C12.7694 5.54601 13.0231 5.71551 13.319 5.75789L18.3929 6.52065C19.1117 6.64777 19.4499 7.53766 18.9002 8.08854L15.1794 11.9023C14.968 12.1142 14.8835 12.4108 14.9257 12.7075L15.8137 18.0468C15.9405 18.8095 15.1371 19.3604 14.4606 18.979L10.021 16.5213C9.72506 16.3518 9.42909 16.3518 9.13312 16.5213L4.69351 18.979C4.017 19.3604 3.21365 18.7672 3.34049 18.0468L4.22841 12.7498C4.27069 12.4532 4.18613 12.1566 3.97472 11.9447L0.253912 8.13091C-0.253471 7.58003 0.0425026 6.69015 0.761295 6.56302L5.83513 5.80026C6.1311 5.75789 6.38479 5.54601 6.51164 5.29176L8.75258 0.545705C9.09083 -0.174678 10.1056 -0.174678 10.4016 0.503329Z" fill="#E6361F"/>
</svg>
